# xmcd
#
# Track frame offsets:
#	150
#	12261
#	27076
#	48036
#	65549
#	88991
#	111112
#	127988
#	143993
#	162546
#
# Disc length: 2412 seconds
#
# Revision: 1
# Processed by: cddbd v1.5.1PL0 Copyright (c) Steve Scherf et al.
# Submitted via: audiograbber 1.83.01
#
DISCID=82096a0a
DTITLE=Charlotte Ritchie - Closer
DYEAR=2004
DGENRE=Gospel
TTITLE0=Boomerang
TTITLE1=Leaning On The Rock That Never Rolls
TTITLE2=You Are With Me
TTITLE3=I Am Holding You
TTITLE4=If These Walls Could Speak
TTITLE5=Back To Trust
TTITLE6=Good To Me
TTITLE7=Draw Me Closer
TTITLE8=Lord Of All
TTITLE9=You Could Hardly Recognize Me
EXTD=
EXTT0=
EXTT1=
EXTT2=
EXTT3=
EXTT4=
EXTT5=
EXTT6=
EXTT7=
EXTT8=
EXTT9=
PLAYORDER=
